<svg width="194.42mm" height="194.22mm" version="1.1" viewBox="0 0 194.42 194.22" xmlns="http://www.w3.org/2000/svg" xmlns:lc="http://www.librecad.org" xmlns:xlink="http://www.w3.org/1999/xlink">
 <g transform="translate(-4.5232 -52.477)">
  <g transform="translate(392.36 343.14)" fill="none" stroke="#000" lc:is_construction="false" lc:is_locked="false" lc:layername="Body">
   <g stroke="none">
    <path transform="matrix(.26458 0 0 .26458 -406.51 -309.43)" d="m286.79 72.996-213.8 213.8c194.9 120.53 255.74 256.95 182.5 409.27l106.89 106.91c50.394-41.747 100.79-41.747 151.19 0l106.89-106.91c-73.239-152.32-12.401-288.74 182.5-409.27l-213.8-213.8c-100.79 83.495-201.59 83.495-302.38 0z" fill="#103030"/>
    <path transform="matrix(8 0 0 8 2038.7 1854.4)" d="m-295.87-265.74-4.5703 4.5703c0.59216 0.43822 1.1553 0.88378 1.6826 1.3394 0.52725 0.4557 1.0183 0.92154 1.4656 1.4004 0.44722 0.4789 0.85091 0.97109 1.203 1.479 0.35215 0.5079 0.65307 1.032 0.89503 1.5746 0.25752 0.57752 0.44073 1.1693 0.55759 1.771 0.11685 0.60163 0.16722 1.2127 0.15916 1.8293-8e-3 0.61661-0.0745 1.2384-0.19172 1.8609-0.11721 0.62244-0.28547 1.2459-0.49609 1.865l1.8009 1.8004c0.3501-0.16565 0.70847-0.3059 1.0759-0.40463 0.36745-0.0987 0.74405-0.15554 1.1312-0.15554 0.38715 0 0.76376 0.0568 1.1312 0.15554 0.36746 0.0987 0.72582 0.23898 1.0759 0.40463l1.8009-1.8004c-0.21064-0.61914-0.37854-1.2426-0.49558-1.865-0.11705-0.62244-0.18337-1.2443-0.1912-1.8609-8e-3 -0.6166 0.0426-1.2277 0.15968-1.8293 0.11703-0.60163 0.30058-1.1934 0.5581-1.771 0.24196-0.54263 0.54257-1.0667 0.89452-1.5746 0.35196-0.50788 0.75503-1.0001 1.202-1.479 0.447-0.4789 0.93796-0.94474 1.465-1.4004 0.52706-0.45567 1.0904-0.90123 1.6826-1.3394l-4.5703-4.5703c-0.37568 0.23344-0.75553 0.45018-1.1395 0.64337-0.38393 0.19318-0.77176 0.36299-1.1643 0.50384-0.39252 0.14087-0.7897 0.25272-1.1911 0.32918-0.40145 0.0765-0.80731 0.11731-1.218 0.11731s-0.81658-0.0408-1.218-0.11731c-0.40144-0.0765-0.79862-0.18831-1.1911-0.32918-0.39251-0.14085-0.78036-0.31066-1.1643-0.50384-0.38394-0.19319-0.76379-0.40993-1.1395-0.64337z" fill="none"/>
    <path transform="matrix(8 0 0 8 2038.7 1854.4)" d="m-295.87-265.74-4.5703 4.5703c0.59216 0.43822 1.1553 0.88378 1.6826 1.3394 0.52725 0.4557 1.0183 0.92154 1.4656 1.4004 0.44722 0.4789 0.85091 0.97109 1.203 1.479 0.35215 0.5079 0.65307 1.032 0.89503 1.5746 0.25752 0.57752 0.44073 1.1693 0.55759 1.771 0.11685 0.60163 0.16722 1.2127 0.15916 1.8293-8e-3 0.61661-0.0745 1.2384-0.19172 1.8609-0.11721 0.62244-0.28547 1.2459-0.49609 1.865l1.8009 1.8004c0.3501-0.16565 0.70847-0.3059 1.0759-0.40463 0.36745-0.0987 0.74405-0.15554 1.1312-0.15554 0.38715 0 0.76376 0.0568 1.1312 0.15554 0.36746 0.0987 0.72582 0.23898 1.0759 0.40463l1.8009-1.8004c-0.21064-0.61914-0.37854-1.2426-0.49558-1.865-0.11705-0.62244-0.18337-1.2443-0.1912-1.8609-8e-3 -0.6166 0.0426-1.2277 0.15968-1.8293 0.11703-0.60163 0.30058-1.1934 0.5581-1.771 0.24196-0.54263 0.54257-1.0667 0.89452-1.5746 0.35196-0.50788 0.75503-1.0001 1.202-1.479 0.447-0.4789 0.93796-0.94474 1.465-1.4004 0.52706-0.45567 1.0904-0.90123 1.6826-1.3394l-4.5703-4.5703c-0.37568 0.23344-0.75553 0.45018-1.1395 0.64337-0.38393 0.19318-0.77176 0.36299-1.1643 0.50384-0.39252 0.14087-0.7897 0.25272-1.1911 0.32918-0.40145 0.0765-0.80731 0.11731-1.218 0.11731s-0.81658-0.0408-1.218-0.11731c-0.40144-0.0765-0.79862-0.18831-1.1911-0.32918-0.39251-0.14085-0.78036-0.31066-1.1643-0.50384-0.38394-0.19319-0.76379-0.40993-1.1395-0.64337z" fill="#2e8a8a"/>
    <path transform="matrix(.26458 0 0 .26458 -392.36 -343.14)" d="m342.89 391.93-34.234 48.219 21.734 69.953 39.156 39.453h29.906l41.156-41.469 19.734-67.938-34.234-48.219z" fill="#903030" style="paint-order:stroke markers fill"/>
   </g>
  </g>
 </g>
</svg>
